/* XPM */
static const char * icon_xpm[] = {
"16 16 65 1",
" 	c None",
".	c #000000",
"+	c #737373",
"@	c #A8A8A8",
"#	c #A7A7A7",
"$	c #959595",
"%	c #606060",
"&	c #040404",
"*	c #0F0F0F",
"=	c #D1D1D1",
"-	c #FFFFFF",
";	c #D4D4D4",
">	c #717171",
",	c #AFAFAF",
"'	c #C6C6C6",
")	c #050505",
"!	c #C8C8C8",
"~	c #060606",
"{	c #5F5F5F",
"]	c #787878",
"^	c #1C1C1C",
"/	c #C1C1C1",
"(	c #5C5C5C",
"_	c #656565",
":	c #7F7F7F",
"<	c #7C7C7C",
"[	c #0A0A0A",
"}	c #414141",
"|	c #CFCFCF",
"1	c #3C3C3C",
"2	c #D8D8D8",
"3	c #020202",
"4	c #797979",
"5	c #B5B5B5",
"6	c #F1F1F1",
"7	c #6C6C6C",
"8	c #696969",
"9	c #090909",
"0	c #191919",
"a	c #CDCDCD",
"b	c #747474",
"c	c #D5D5D5",
"d	c #FBFBFB",
"e	c #030303",
"f	c #3D3D3D",
"g	c #A4A4A4",
"h	c #D7D7D7",
"i	c #FDFDFD",
"j	c #BCBCBC",
"k	c #7E7E7E",
"l	c #F7F7F7",
"m	c #F0F0F0",
"n	c #383838",
"o	c #ECECEC",
"p	c #B0B0B0",
"q	c #727272",
"r	c #474747",
"s	c #C0C0C0",
"t	c #BFBFBF",
"u	c #ADADAD",
"v	c #838383",
"w	c #1B1B1B",
"x	c #2A2A2A",
"y	c #919191",
"z	c #B9B9B9",
"................",
"................",
".+@@@#$%&.*=-;>.",
".,------')..!~..",
"..{-].^/-(..!~..",
"..{-].._-:..!~..",
"..{-<[}|-1..!~..",
"..{-----23..43..",
"..{-=@56-7..89..",
"..{-]..06a..-b..",
"..{-]...cdefgh..",
"..{-].)%i|.jk-9.",
"..{-lmi-ln.obpq.",
"..rsstuvw.xy.&z.",
"................",
"................"};
